# xmcd CD database file generated by Grip 2.95
# 
# Track frame offsets:
#       150
#       22654
#       45879
#       73207
#       94840
#       113576
#       133623
#       157592
#       207145
#       234035
# 
# Disc length: 3415 seconds
# 
# Revision: 3
# Processed by: cddbd v1.4b41PL2 Copyright (c) Steve Scherf et al.
# Submitted via: Grip 2.95
# 
DISCID=680d550a
DTITLE=John Mayall - Blue For You
DYEAR=1900
DGENRE=
TTITLE0=All for You Love
TTITLE1=Cold Blooded Woman
TTITLE2=Dream About The Blues
TTITLE3=Fascinating Lover
TTITLE4=I Aint't Got You
TTITLE5=It Ain't All Right
TTITLE6=One Life To Live
TTITLE7=Room To Move
TTITLE8=Tears Came Rollin' Down
TTITLE9=The Dirty Dozen
EXTD=
EXTT0=
EXTT1=
EXTT2=
EXTT3=
EXTT4=
EXTT5=
EXTT6=
EXTT7=
EXTT8=
EXTT9=
PLAYORDER=
